<svg xmlns="http://www.w3.org/2000/svg" xmlns:xlink="http://www.w3.org/1999/xlink" version="1.1" x="0px" y="0px" viewBox="0 0 100 125" style="enable-background:new 0 0 100 100;" xml:space="preserve"><ellipse cx="38.08" cy="22.67" rx="7.6" ry="12.67"/><path d="M20.49,49.48c3.7,0,6.7-5,6.7-11.17c0-6.17-3-11.17-6.7-11.17c-3.7,0-6.7,5-6.7,11.17C13.79,44.48,16.79,49.48,20.49,49.48z  "/><ellipse cx="79.51" cy="38.31" rx="6.7" ry="11.17"/><ellipse cx="61.9" cy="22.67" rx="7.6" ry="12.67"/><path d="M23.5,71.23C23.5,88.08,35.36,90,49.99,90s26.49-1.92,26.49-18.77c0-16.86-11.86-30.52-26.49-30.52S23.5,54.37,23.5,71.23z"/><text x="0" y="115" fill="#000000" font-size="5px" font-weight="bold" font-family="'Helvetica Neue', Helvetica, Arial-Unicode, Arial, Sans-serif">Created by ainul muttaqin</text><text x="0" y="120" fill="#000000" font-size="5px" font-weight="bold" font-family="'Helvetica Neue', Helvetica, Arial-Unicode, Arial, Sans-serif">from the Noun Project</text></svg>