<svg xmlns="http://www.w3.org/2000/svg" xmlns:xlink="http://www.w3.org/1999/xlink" xml:space="preserve" version="1.1" style="shape-rendering:geometricPrecision;text-rendering:geometricPrecision;image-rendering:optimizeQuality;" viewBox="0 0 216 267.5" x="0px" y="0px" fill-rule="evenodd" clip-rule="evenodd"><defs><style type="text/css">
   
    .fil0 {fill:black}
   
  </style></defs><g><path class="fil0" d="M108 94c26,0 48,27 48,60 0,33 -22,60 -48,60 -27,0 -48,-27 -48,-60 0,-33 21,-60 48,-60z"/><path class="fil0" d="M16 55c13,-3 30,12 36,34 6,22 0,43 -13,46 -14,3 -30,-12 -36,-34 -7,-22 -1,-42 13,-46z"/><path class="fil0" d="M58 0c14,-3 30,12 37,34 6,22 0,43 -14,46 -13,3 -29,-12 -36,-34 -6,-22 0,-42 13,-46z"/><path class="fil0" d="M200 55c-13,-3 -30,12 -36,34 -6,22 0,43 13,46 14,3 30,-12 36,-34 7,-22 1,-42 -13,-46z"/><path class="fil0" d="M158 0c-14,-3 -30,12 -37,34 -6,22 0,43 14,46 13,3 29,-12 36,-34 6,-22 0,-42 -13,-46z"/></g><text x="0" y="229" fill="#000000" font-size="5px" font-weight="bold" font-family="'Helvetica Neue', Helvetica, Arial-Unicode, Arial, Sans-serif">Created by kareemov1000</text><text x="0" y="234" fill="#000000" font-size="5px" font-weight="bold" font-family="'Helvetica Neue', Helvetica, Arial-Unicode, Arial, Sans-serif">from the Noun Project</text></svg>